<?xml version="1.0" encoding="UTF-8" standalone="yes"?><svg xmlns="http://www.w3.org/2000/svg" xmlns:xlink="http://www.w3.org/1999/xlink" version="1.2" baseProfile="tiny" x="0" y="0" width="283" height="26" viewBox="0 0 283 26"><defs/><defs><path id="p0x1d45f" d="M 928.13 -1128.52 L 870.7 -938.67 L 767.58 -944.53 C 714.453 -944.53 667.383 -931.25 626.37 -904.69 C 585.35 -878.123 550.78 -840.623 522.66 -792.19 L 403.13 0 L 198.05 0 L 366.8 -1119.14 L 549.61 -1119.14 L 544.92 -960.94 C 585.547 -1017.19 631.447 -1061.13 682.62 -1092.77 C 733.793 -1124.41 790.237 -1140.23 851.95 -1140.23 C 866.017 -1140.23 880.277 -1139.06 894.73 -1136.72 C 909.183 -1134.37 920.317 -1131.64 928.13 -1128.52 Z"/><path id="p0x1d44e" d="M 493.36 18.75 C 373.047 18.75 278.517 -16.9933 209.77 -88.48 C 141.017 -159.96 106.64 -260.937 106.64 -391.41 C 106.64 -495.317 123.437 -592.777 157.03 -683.79 C 190.623 -774.803 238.083 -854.687 299.41 -923.44 C 360.743 -992.187 432.033 -1045.51 513.28 -1083.4 C 594.533 -1121.29 682.817 -1140.23 778.13 -1140.23 C 840.63 -1140.23 900.2 -1130.66 956.84 -1111.52 C 1013.48 -1092.38 1058.99 -1066.4 1093.36 -1033.59 L 1132.03 -1120.31 L 1285.55 -1120.31 C 1270.7 -1049.22 1256.64 -981.053 1243.36 -915.82 C 1230.08 -850.587 1217.58 -786.72 1205.86 -724.22 L 1144.92 -382.03 C 1133.2 -310.157 1123.63 -238.867 1116.21 -168.16 C 1108.79 -97.46 1105.08 -41.7967 1105.08 -1.17 L 894.14 -1.17 C 894.14 -44.9233 896.873 -89.0633 902.34 -133.59 C 907.813 -178.123 915.627 -222.267 925.78 -266.02 C 871.873 -169.14 808.397 -97.46 735.35 -50.98 C 662.303 -4.49333 581.64 18.75 493.36 18.75 M 528.52 -153.52 C 605.08 -153.52 675.587 -175.59 740.04 -219.73 C 804.493 -263.87 859.18 -325.783 904.1 -405.47 C 949.02 -485.157 981.247 -578.517 1000.78 -685.55 L 1035.94 -891.8 C 975.78 -952.733 891.013 -983.2 781.64 -983.2 C 679.3 -983.2 592.19 -956.053 520.31 -901.76 C 448.437 -847.46 393.36 -776.757 355.08 -689.65 C 316.8 -602.537 297.66 -509.373 297.66 -410.16 C 297.66 -327.347 317.58 -263.87 357.42 -219.73 C 397.267 -175.59 454.3 -153.52 528.52 -153.52"/><path id="p0x1d464" d="M 355.08 -1120.31 L 425.39 -393.75 L 428.91 -249.61 L 434.77 -248.44 L 485.16 -393.75 L 819.14 -1120.31 L 984.38 -1120.31 L 1102.73 -393.75 L 1108.59 -230.86 L 1114.45 -229.69 L 1171.88 -393.75 L 1447.27 -1120.31 L 1662.89 -1120.31 L 1164.84 18.75 L 998.44 18.75 L 877.73 -670.31 L 862.5 -856.64 L 856.64 -857.81 L 789.84 -670.31 L 466.41 18.75 L 300 18.75 L 140.63 -1120.31 L 355.08 -1120.31 Z"/><path id="p0x1d460" d="M 759.38 -302.34 C 765.627 -348.433 753.907 -385.35 724.22 -413.09 C 694.533 -440.823 633.203 -465.237 540.23 -486.33 C 412.11 -515.237 316.213 -554.69 252.54 -604.69 C 188.867 -654.69 163.28 -722.657 175.78 -808.59 C 188.28 -903.123 237.5 -981.837 323.44 -1044.73 C 409.373 -1107.62 514.84 -1139.06 639.84 -1139.06 C 760.933 -1139.06 857.42 -1104.3 929.3 -1034.77 C 1001.17 -965.237 1028.91 -885.157 1012.5 -794.53 L 1011.33 -788.67 L 815.63 -788.67 C 822.657 -837.89 807.81 -881.837 771.09 -920.51 C 734.377 -959.183 683.207 -978.52 617.58 -978.52 C 548.827 -978.52 493.553 -962.113 451.76 -929.3 C 409.96 -896.487 385.937 -858.203 379.69 -814.45 C 373.437 -769.137 383.787 -734.763 410.74 -711.33 C 437.693 -687.89 498.437 -666.013 592.97 -645.7 C 725.783 -616.793 824.027 -576.17 887.7 -523.83 C 951.367 -471.483 977.343 -402.733 965.63 -317.58 C 950.783 -214.453 899.22 -132.42 810.94 -71.48 C 722.66 -10.5467 613.283 19.92 482.81 19.92 C 346.09 19.92 240.23 -16.6033 165.23 -89.65 C 90.23 -162.697 61.3267 -246.877 78.52 -342.19 L 80.86 -348.05 L 276.56 -348.05 C 270.313 -275.39 290.04 -222.46 335.74 -189.26 C 381.447 -156.053 437.893 -139.45 505.08 -139.45 C 574.613 -139.45 632.427 -154.88 678.52 -185.74 C 724.613 -216.6 751.567 -255.467 759.38 -302.34 Z"/><path id="p0x1d450" d="M 555.47 -139.45 C 615.623 -139.45 672.653 -160.543 726.56 -202.73 C 780.467 -244.923 812.5 -295.707 822.66 -355.08 L 1006.64 -355.08 L 1007.81 -349.22 C 996.09 -248.44 942.38 -161.72 846.68 -89.06 C 750.98 -16.4067 646.097 19.92 532.03 19.92 C 381.25 19.92 269.533 -33.9867 196.88 -141.8 C 124.22 -249.613 99.61 -382.033 123.05 -539.06 L 128.91 -582.42 C 153.91 -744.92 216.8 -878.32 317.58 -982.62 C 418.36 -1086.91 547.657 -1139.06 705.47 -1139.06 C 825.783 -1139.06 921.097 -1100.19 991.41 -1022.46 C 1061.72 -944.727 1087.11 -850 1067.58 -738.28 L 1065.23 -732.42 L 878.91 -732.42 C 889.063 -803.513 875.977 -862.303 839.65 -908.79 C 803.323 -955.277 750.783 -978.52 682.03 -978.52 C 585.937 -978.52 507.813 -939.067 447.66 -860.16 C 387.5 -781.253 349.607 -688.673 333.98 -582.42 L 328.13 -539.06 C 310.157 -423.44 317.967 -327.933 351.56 -252.54 C 385.153 -177.147 453.123 -139.45 555.47 -139.45 Z"/><path id="p0x1d45c" d="M 137.11 -548.44 L 140.63 -571.88 C 166.41 -741.407 231.643 -878.32 336.33 -982.62 C 441.017 -1086.91 570.703 -1139.06 725.39 -1139.06 C 874.61 -1139.06 987.5 -1085.15 1064.06 -977.34 C 1140.63 -869.533 1167.19 -734.38 1143.75 -571.88 L 1139.06 -548.44 C 1113.28 -375.78 1048.24 -237.89 943.95 -134.77 C 839.65 -31.6433 709.767 19.92 554.3 19.92 C 405.08 19.92 291.993 -33.79 215.04 -141.21 C 138.087 -248.63 112.11 -384.373 137.11 -548.44 M 344.53 -571.88 L 341.02 -548.44 C 322.267 -425.78 332.227 -326.95 370.9 -251.95 C 409.573 -176.95 478.517 -139.45 577.73 -139.45 C 670.703 -139.45 749.027 -178.513 812.7 -256.64 C 876.367 -334.767 917.187 -432.033 935.16 -548.44 L 939.84 -571.88 C 957.813 -691.407 947.267 -789.06 908.2 -864.84 C 869.14 -940.627 800.39 -978.52 701.95 -978.52 C 608.203 -978.52 529.493 -939.067 465.82 -860.16 C 402.147 -781.253 361.717 -685.16 344.53 -571.88"/><path id="p0x1d452" d="M 560.16 18.75 C 407.033 18.75 291.993 -32.8133 215.04 -135.94 C 138.087 -239.067 112.11 -375.003 137.11 -543.75 L 144.14 -588.28 C 168.36 -753.907 233.593 -887.307 339.84 -988.48 C 446.093 -1089.65 566.407 -1140.23 700.78 -1140.23 C 843.747 -1140.23 946.677 -1093.36 1009.57 -999.61 C 1072.46 -905.857 1092.58 -783.98 1069.92 -633.98 L 1054.69 -527.34 L 337.5 -527.34 C 321.093 -404.687 332.42 -309.377 371.48 -241.41 C 410.547 -173.437 481.643 -139.45 584.77 -139.45 C 650.39 -139.45 711.327 -149.413 767.58 -169.34 C 823.827 -189.26 872.653 -215.627 914.06 -248.44 L 972.66 -117.19 C 928.127 -78.91 871.29 -46.6833 802.15 -20.51 C 733.01 5.66333 652.347 18.75 560.16 18.75 M 677.34 -980.86 C 610.153 -980.86 549.023 -953.517 493.95 -898.83 C 438.87 -844.143 399.22 -775.003 375 -691.41 L 377.34 -685.55 L 876.56 -685.55 L 878.91 -701.95 C 891.41 -784.763 881.84 -851.953 850.2 -903.52 C 818.553 -955.08 760.933 -980.86 677.34 -980.86"/><path id="p0x1d44f" d="M 1155.47 -561.33 L 1151.95 -539.06 C 1126.17 -365.627 1066.21 -229.3 972.07 -130.08 C 877.93 -30.86 759.767 18.75 617.58 18.75 C 542.58 18.75 479.103 3.12333 427.15 -28.13 C 375.197 -59.3767 334.377 -105.47 304.69 -166.41 L 244.92 -3.52 L 83.2 -3.52 L 333.98 -1675.78 L 544.92 -1675.78 L 447.66 -1025.39 C 492.187 -1076.17 543.357 -1115.23 601.17 -1142.58 C 658.983 -1169.92 723.437 -1183.59 794.53 -1183.59 C 932.03 -1183.59 1033.4 -1125.97 1098.63 -1010.74 C 1163.86 -895.507 1182.81 -745.703 1155.47 -561.33 M 942.19 -539.06 L 944.53 -561.33 C 965.623 -698.83 958.007 -808.4 921.68 -890.04 C 885.353 -971.68 816.8 -1012.5 716.02 -1012.5 C 652.733 -1012.5 596.09 -996.093 546.09 -963.28 C 496.09 -930.467 453.513 -886.717 418.36 -832.03 L 343.36 -332.81 C 362.107 -275.783 391.013 -231.447 430.08 -199.8 C 469.14 -168.16 522.263 -152.34 589.45 -152.34 C 684.763 -152.34 763.083 -188.28 824.41 -260.16 C 885.743 -332.033 925.003 -425 942.19 -539.06"/><path id="p0x1d462" d="M 1050 -3.52 L 863.67 -3.52 L 875.39 -166.41 C 830.077 -106.25 777.147 -60.35 716.6 -28.71 C 656.053 2.93 588.67 18.75 514.45 18.75 C 394.137 18.75 304.293 -21.4833 244.92 -101.95 C 185.547 -182.423 168.36 -305.08 193.36 -469.92 L 292.97 -1140.23 L 500.39 -1140.23 L 399.61 -468.75 C 380.857 -342.97 385.74 -258.4 414.26 -215.04 C 442.773 -171.68 495.703 -150 573.05 -150 C 644.923 -150 707.617 -165.43 761.13 -196.29 C 814.65 -227.15 858.207 -271.097 891.8 -328.13 L 1012.5 -1140.23 L 1219.92 -1140.23 L 1050 -3.52 Z"/><path id="p0x1d459" d="M 652.73 -1675.78 L 398.44 18.75 L 185.16 18.75 L 439.45 -1675.78 L 652.73 -1675.78 Z"/><path id="p0x1d456" d="M 567.19 -1085.16 L 401.95 18.75 L 201.56 18.75 L 366.8 -1085.16 L 567.19 -1085.16 M 641.02 -1579.69 L 610.55 -1374.61 L 410.16 -1374.61 L 440.63 -1579.69 L 641.02 -1579.69"/><path id="p0x210e" d="M 459.38 -1598.44 L 459.38 -959.77 C 497.66 -1013.68 544.533 -1055.47 600 -1085.16 C 655.467 -1114.85 717.187 -1129.69 785.16 -1129.69 C 903.127 -1129.69 995.117 -1094.14 1061.13 -1023.05 C 1127.15 -951.957 1160.16 -842.58 1160.16 -694.92 L 1160.16 0 L 958.59 0 L 958.59 -697.27 C 958.59 -788.677 938.863 -856.253 899.41 -900 C 859.957 -943.753 801.17 -965.63 723.05 -965.63 C 662.89 -965.63 610.74 -953.713 566.6 -929.88 C 522.46 -906.053 486.72 -873.047 459.38 -830.86 L 459.38 0 L 257.81 0 L 257.81 -1598.44 L 459.38 -1598.44 Z"/><path id="p0x1d45a" d="M 500.39 -1119.14 L 492.19 -975 C 537.503 -1028.13 590.823 -1068.95 652.15 -1097.46 C 713.477 -1125.97 782.813 -1140.23 860.16 -1140.23 C 932.813 -1140.23 994.14 -1122.65 1044.14 -1087.5 C 1094.14 -1052.35 1127.73 -1000 1144.92 -930.47 C 1190.23 -995.31 1245.51 -1046.48 1310.74 -1083.98 C 1375.97 -1121.48 1448.44 -1140.23 1528.13 -1140.23 C 1640.63 -1140.23 1725.39 -1100 1782.42 -1019.53 C 1839.45 -939.063 1856.64 -819.143 1833.98 -659.77 L 1730.86 18.75 L 1523.44 18.75 L 1625.39 -662.11 C 1643.36 -778.517 1636.52 -859.18 1604.88 -904.1 C 1573.24 -949.02 1518.36 -971.48 1440.23 -971.48 C 1372.26 -971.48 1312.11 -946.48 1259.77 -896.48 C 1207.42 -846.48 1171.48 -783.98 1151.95 -708.98 C 1151.17 -708.2 1150.78 -707.223 1150.78 -706.05 C 1150.78 -704.883 1150.78 -703.517 1150.78 -701.95 L 1041.8 18.75 L 832.03 18.75 L 935.16 -662.11 C 951.567 -773.05 943.753 -852.347 911.72 -900 C 879.687 -947.653 825.78 -971.48 750 -971.48 C 688.28 -971.48 634.763 -957.613 589.45 -929.88 C 544.137 -902.147 506.637 -863.67 476.95 -814.45 L 351.56 18.75 L 142.97 18.75 L 314.06 -1119.14 L 500.39 -1119.14 Z"/></defs><g><g transform="matrix(1,0,0,1,2,2)"><g transform="matrix(0.0075,0,0,0.0075,0.9,17.1035)"><use fill="#000000" x="0" y="0" xlink:href="#p0x1d45f"/></g><g transform="matrix(0.0075,0,0,0.0075,10.3606,17.1035)"><use fill="#000000" x="0" y="0" xlink:href="#p0x1d44e"/></g><g transform="matrix(1,0,0,1,21.2889,0)"><g><g transform="matrix(0.0075,0,0,0.0075,0.9,17.1035)"><use fill="#000000" x="0" y="0" xlink:href="#p0x1d464"/></g></g><g transform="matrix(1,0,0,1,14.1979,9.60232)"><g transform="matrix(0.005,0,0,0.005,0.6,11.4024)"><use fill="#000000" x="0" y="0" xlink:href="#p0x1d460"/></g><g transform="matrix(0.005,0,0,0.005,6.74295,11.4024)"><use fill="#000000" x="0" y="0" xlink:href="#p0x1d450"/></g><g transform="matrix(0.005,0,0,0.005,12.8625,11.4024)"><use fill="#000000" x="0" y="0" xlink:href="#p0x1d45c"/></g><g transform="matrix(0.005,0,0,0.005,19.8551,11.4024)"><use fill="#000000" x="0" y="0" xlink:href="#p0x1d45f"/></g><g transform="matrix(0.005,0,0,0.005,26.1622,11.4024)"><use fill="#000000" x="0" y="0" xlink:href="#p0x1d452"/></g></g></g><text fill="#000000" font-family="Kingsoft Math" font-size="18" font-style="normal" font-weight="400" stroke="none" x="68.5079" y="16.1513"><tspan>=</tspan></text><g transform="matrix(0.0075,0,0,0.0075,79.4079,17.1035)"><use fill="#000000" x="0" y="0" xlink:href="#p0x1d44f"/></g><g transform="matrix(0.0075,0,0,0.0075,90.0111,17.1035)"><use fill="#000000" x="0" y="0" xlink:href="#p0x1d462"/></g><g transform="matrix(0.0075,0,0,0.0075,101.238,17.1035)"><use fill="#000000" x="0" y="0" xlink:href="#p0x1d459"/></g><g transform="matrix(0.0075,0,0,0.0075,107.825,17.1035)"><use fill="#000000" x="0" y="0" xlink:href="#p0x1d459"/></g><g transform="matrix(0.0075,0,0,0.0075,114.411,17.1035)"><use fill="#000000" x="0" y="0" xlink:href="#p0x1d456"/></g><g transform="matrix(0.0075,0,0,0.0075,121.015,17.1035)"><use fill="#000000" x="0" y="0" xlink:href="#p0x1d460"/></g><g transform="matrix(1,0,0,1,130.23,0)"><g><g transform="matrix(0.0075,0,0,0.0075,0.9,17.1035)"><use fill="#000000" x="0" y="0" xlink:href="#p0x210e"/></g></g><g transform="matrix(1,0,0,1,10.8844,9.60232)"><g transform="matrix(0.005,0,0,0.005,0.6,11.4024)"><use fill="#000000" x="0" y="0" xlink:href="#p0x1d45a"/></g><g transform="matrix(0.005,0,0,0.005,11.2605,11.4024)"><use fill="#000000" x="0" y="0" xlink:href="#p0x1d44e"/></g><g transform="matrix(0.005,0,0,0.005,18.5461,11.4024)"><use fill="#000000" x="0" y="0" xlink:href="#p0x1d460"/></g><g transform="matrix(0.005,0,0,0.005,24.6891,11.4024)"><use fill="#000000" x="0" y="0" xlink:href="#p0x1d460"/></g></g></g><text fill="#000000" font-family="Kingsoft Math" font-size="18" font-style="normal" font-weight="400" stroke="none" x="172.246" y="16.1513"><tspan>−</tspan></text><g transform="matrix(0.0075,0,0,0.0075,183.146,17.1035)"><use fill="#000000" x="0" y="0" xlink:href="#p0x1d44f"/></g><g transform="matrix(0.0075,0,0,0.0075,193.749,17.1035)"><use fill="#000000" x="0" y="0" xlink:href="#p0x1d452"/></g><g transform="matrix(0.0075,0,0,0.0075,203.588,17.1035)"><use fill="#000000" x="0" y="0" xlink:href="#p0x1d44e"/></g><g transform="matrix(0.0075,0,0,0.0075,214.516,17.1035)"><use fill="#000000" x="0" y="0" xlink:href="#p0x1d45f"/></g><g transform="matrix(0.0075,0,0,0.0075,223.977,17.1035)"><use fill="#000000" x="0" y="0" xlink:href="#p0x1d456"/></g><g transform="matrix(0.0075,0,0,0.0075,230.581,17.1035)"><use fill="#000000" x="0" y="0" xlink:href="#p0x1d460"/></g><g transform="matrix(1,0,0,1,239.795,0)"><g><g transform="matrix(0.0075,0,0,0.0075,0.9,17.1035)"><use fill="#000000" x="0" y="0" xlink:href="#p0x210e"/></g></g><g transform="matrix(1,0,0,1,10.8844,9.60232)"><g transform="matrix(0.005,0,0,0.005,0.6,11.4024)"><use fill="#000000" x="0" y="0" xlink:href="#p0x1d45a"/></g><g transform="matrix(0.005,0,0,0.005,11.2605,11.4024)"><use fill="#000000" x="0" y="0" xlink:href="#p0x1d44e"/></g><g transform="matrix(0.005,0,0,0.005,18.5461,11.4024)"><use fill="#000000" x="0" y="0" xlink:href="#p0x1d460"/></g><g transform="matrix(0.005,0,0,0.005,24.6891,11.4024)"><use fill="#000000" x="0" y="0" xlink:href="#p0x1d460"/></g></g></g></g></g></svg>
